<svg width="1922" height="16" viewBox="0 0 1922 16" fill="none" xmlns="http://www.w3.org/2000/svg">
<path d="M960.5 8C944.492 -2.52617 928.481 -2.42166 912.473 8.10449C896.464 18.6307 880.457 18.6306 864.448 8.10449C848.44 -2.42168 832.431 -2.42166 816.423 8.10449C800.415 18.6307 784.407 18.6307 768.398 8.10449C752.39 -2.42168 736.381 -2.42168 720.373 8.10449C704.365 18.6307 688.357 18.6307 672.349 8.10449C656.34 -2.42168 640.332 -2.42168 624.323 8.10449C608.315 18.6307 592.307 18.6307 576.299 8.10449C560.291 -2.42166 544.282 -2.42168 528.273 8.10449C512.265 18.6306 496.257 18.6307 480.249 8.10449C464.241 -2.42166 448.232 -2.42168 432.224 8.10449C416.215 18.6306 400.208 18.6307 384.199 8.10449C368.191 -2.42163 352.182 -2.42167 336.174 8.10449C320.166 18.6306 304.158 18.6307 288.149 8.10449C272.141 -2.42161 256.132 -2.42166 240.124 8.10449C224.116 18.6306 208.108 18.6307 192.1 8.10449C176.091 -2.4216 160.082 -2.42166 144.074 8.10449C128.066 18.6306 112.058 18.6306 96.0498 8.10449C80.0416 -2.42159 64.0327 -2.42165 48.0244 8.10449C32.0162 18.6306 16.0082 18.6306 0 8.10449V0H960.498L960.5 8ZM1921.5 8.10547C1905.49 -2.42071 1889.48 -2.42071 1873.47 8.10547C1857.46 18.6315 1841.46 18.6314 1825.45 8.10547C1809.44 -2.42071 1793.43 -2.42071 1777.42 8.10547C1761.41 18.6315 1745.41 18.6315 1729.4 8.10547C1713.39 -2.42071 1697.38 -2.42071 1681.37 8.10547C1665.36 18.6315 1649.36 18.6315 1633.35 8.10547C1617.34 -2.42071 1601.33 -2.42071 1585.32 8.10547C1569.32 18.6315 1553.31 18.6315 1537.3 8.10547C1521.29 -2.42071 1505.28 -2.42071 1489.27 8.10547C1473.27 18.6314 1457.26 18.6315 1441.25 8.10547C1425.24 -2.42071 1409.23 -2.42071 1393.22 8.10547C1377.22 18.6314 1361.21 18.6315 1345.2 8.10547C1329.19 -2.42071 1313.18 -2.42071 1297.17 8.10547C1281.42 18.4671 1265.66 18.6289 1249.9 8.59082L1248.4 7.62012C1232.64 -2.41814 1216.88 -2.25636 1201.12 8.10547C1185.37 18.467 1169.61 18.6289 1153.85 8.59082L1152.35 7.62012C1136.59 -2.41813 1120.83 -2.25635 1105.07 8.10547C1089.32 18.467 1073.56 18.6289 1057.8 8.59082L1056.3 7.62012C1040.54 -2.41811 1024.78 -2.25635 1009.02 8.10547C993.016 18.6314 976.508 18.5261 960.5 8V0H1921.5V8.10547Z" fill="#001A2B"/>
</svg>
