<?xml version="1.0" encoding="UTF-8"?>
<svg id="Layer_1" data-name="Layer 1" xmlns="http://www.w3.org/2000/svg" viewBox="0 0 132.74 98.01">
  <defs>
    <style>
      .cls-1 {
        fill: #ff1400;
      }

      .cls-2 {
        fill: #faf9ef;
      }
    </style>
  </defs>
  <g>
    <path class="cls-1" d="M51.65,39.4c.18-.56.51-.91.91-1.03.56-.17,1.26.12,1.49.89.12.38.07.81-.03,1.35-2.59,12.24-11.26,24.56-24.54,28.56-12.47,3.76-24.18-2.09-28.01-14.82C-5.12,32.48,11.49,7.14,31.16,1.22c8-2.41,15.85-1.51,17.84,5.09,1.83,6.06-3.36,11.14-9.12,12.87-3.92,1.18-6.85.14-7.15-.86-.14-.46-.04-.99.34-1.19,4.35-2.65,5.4-5.81,4.71-8.11-.69-2.3-3.19-3.64-6.47-2.65-14.07,4.24-22.49,26.1-18.07,40.76,2.89,9.59,10.13,15.11,19.97,12.14,8.71-2.63,15.63-10.65,18.44-19.86Z"/>
    <path class="cls-1" d="M63.39,7.96c2.94,0,4.44,2.46,4.44,6.06,0,6.66-6.6,16.26-13.62,22.08-.54,2.1-.96,4.26-1.2,6.3,3.3-6.18,8.76-14.46,13.26-14.46,1.68,0,3.42,1.14,3.42,4.2,0,4.8-3.66,9.42-3.66,12.18,0,.9.48,1.44,1.02,1.44.84,0,2.46-.18,6.54-6,.24-.36.6-.54.9-.54.42,0,.78.36.78.9,0,.3-.06.6-.3,1.02-4.5,8.1-7.8,10.02-10.74,10.02s-4.8-2.16-4.8-5.28c0-4.14,2.76-9.36,2.76-10.8,0-.3-.12-.48-.36-.48-1.38,0-5.1,5.04-7.2,10.62-1.32,3.54-1.68,5.94-3.66,5.94-2.1,0-3.3-1.2-4.02-3-.3-.78-.48-2.64-.48-4.2,0-1.44.24-3.72.66-6,2.4-12.6,9.24-30,16.26-30ZM55.29,32.32c4.8-5.28,8.28-11.28,8.28-14.7,0-.42-.06-.96-.66-.96-1.56,0-5.16,7.32-7.62,15.66Z"/>
    <path class="cls-1" d="M91.94,42.88c.37-.22.77-.23,1.05-.1.38.18.55.66.31,1.15-.13.27-.31.51-.71.79-7.56,5.36-13.58,4.6-17.15,2.89-3.68-1.76-6.36-6.17-3.87-11.37,3.14-6.55,11.9-10.53,17.9-7.66,3.41,1.63,4.35,4.68,3.18,7.11-1.76,3.68-7.69,5.23-14.58,2.93-.76,2.43-.51,4.68,1.92,5.84,1.79.86,5.75,1.89,11.94-1.6ZM79,36.42c3.47.67,7.64-.53,8.99-3.35.54-1.14.18-1.91-.36-2.17-1.95-.93-6.46,1.83-8.63,5.51Z"/>
    <path class="cls-1" d="M101.87,33.46c1.07.03,2.38,1.07,3.36,2.22,1.51-.26,2.96-.68,4.06-1.27,2.44-1.23,2.64-2.19,3.15-2.2.62-.01,1.42.7,1.45,2.21.05,2.3-1.47,4.52-6.39,5.3,1.35,2.72,2.46,7.23,2.52,9.87.16,7.06-2.97,12.63-8.18,12.74-4.82.11-8.13-4.98-8.32-13.38-.39-17.65,9.22-41.53,16.79-41.7,3.31-.07,4.93,2.41,5.01,6.06.1,4.71-5.85,14.32-13.46,20.15ZM103.63,39.81c-1.18-.14-2.37-.84-3.12-1.72-.5,2.81-.71,5.74-.65,8.71.12,5.21,1.14,8.27,3.21,8.23,1.85-.04,2.9-3.15,2.83-6.51-.05-2.35-.4-5.49-2.27-8.7ZM102.47,30.14c4.99-4.82,8.88-11.47,8.83-13.88-.01-.56-.19-.89-.64-.88-1.29.03-5.41,6.12-8.19,14.76Z"/>
    <path class="cls-1" d="M116.32,33.91c0-.96,1.32-1.8,2.52-7.8.54-2.7.96-4.8,3.72-4.8,2.04,0,3.78,1.38,3.78,3.96,0,4.08-6.06,9.6-9.18,9.6-.6,0-.84-.54-.84-.96Z"/>
    <path class="cls-1" d="M121.76,49.6c-1.62,1.36-2.4,2.66-2.4,4.61s1.23,3.05,2.47,3.05c2.01,0,3.51-2.01,3.51-4.87,0-4.74-4.42-9.81-4.42-13.83,0-2.92,2.27-6.3,5.52-6.3,2.21,0,3.05,1.56,3.05,3.25s-.91,3.9-2.4,5.52c2.01,3.12,5.13,5.71,5.13,10.07,0,5.26-4.42,9.68-10.85,9.68-5.39,0-7.92-3.18-7.92-6.43,0-4.22,3.83-7.27,7.34-7.27,1.3,0,2.4.58,2.4,1.43,0,.39-.71.52-1.43,1.1Z"/>
  </g>
  <g>
    <path class="cls-1" d="M74.12,62.64c-1.56-.45-3.24-.91-5.11-.91-4.67,0-8.04,2.67-8.04,6.14,0,1.81.93,3.02,2.31,3.02,1.07,0,1.78-.6,2.13-.96.18-.15.31-.25.49-.25.31,0,.62.35.62,1.26,0,2.36-2.31,5.89-6,5.89-3.2,0-5.73-2.62-5.73-6.79,0-6.09,5.47-10.97,13.95-10.97,3.16,0,5.64.7,8.09,1.21.89-.6,2.13-1.26,3.73-1.26,1.78,0,3.11.86,3.11,2.41,0,1.66-1.51,2.67-3.6,2.67-.76,0-1.56-.1-2.31-.3-5.55,8.55-4.09,34.21-20,34.21-4.89,0-8.13-3.27-8.13-6.89,0-3.32,2.09-5.08,4.22-5.08,1.78,0,3.24,1.61,3.24,2.97,0,.65-1.47,1.01-1.47,3.22,0,1.71,1.33,2.82,2.89,2.82,8.35,0,7.2-24,15.6-32.4ZM80.78,79.55c2.27,4.18,3.24,11.07,6.44,11.07.98,0,2.53-.5,5.56-5.38.18-.3.44-.45.67-.45.31,0,.58.3.58.76,0,.25-.04.5-.22.85-3.33,6.79-6.62,10.52-10.18,10.52-6.27,0-6.44-11.17-7.07-16.3-1.38,0-2.36-1.06-2.36-2.16,0-1.26,1.07-2.11,2.58-2.11.93,0,1.69.4,2.4,1.01,5.33-2.67,9.95-9.16,9.95-14.54,0-2.06-.76-2.62-.76-3.32,0-.3.58-.76,1.87-.76,2.53,0,5.16,1.91,5.16,5.89,0,5.89-8.58,12.38-14.62,14.94Z"/>
    <path class="cls-1" d="M100.53,74.55c0,1.16-.51,1.8-1.36,3.6-1.7,3.66-2.5,7-2.5,9.19,0,1.93.74,2.63,1.53,2.63,1.08,0,2.78-.39,6.64-6.62.23-.39.57-.58.85-.58.4,0,.74.39.74.96,0,.32-.06.64-.28,1.09-4.26,8.68-8.06,10.73-11.01,10.73-3.35,0-4.94-3.28-4.94-7.26,0-2.96.79-7.07,1.93-10.28,1.42-3.98,3.06-7.33,5.17-7.33s3.24,1.74,3.24,3.86ZM97.18,63.37c0-2.89,2.21-5.21,4.88-5.21s3.8,2.18,3.8,4.05c0,2.89-2.38,4.88-5.05,4.88-2.04,0-3.63-1.54-3.63-3.73Z"/>
    <path class="cls-1" d="M108.33,81.88c-1.08-2.63-2.33-5.27-2.33-7.52,0-2.89,1.99-6.23,4.83-6.23,1.93,0,2.67,1.54,2.67,3.21s-.79,3.86-2.1,5.46c.85,1.48,1.93,2.83,2.78,4.31,5-.71,9.37-3.21,11.18-4.76.34-.32.74-.45,1.02-.45.4,0,.62.26.62.71,0,.32-.17.77-.51,1.29-1.36,2.06-6.64,4.76-11.07,5.91.28.9.45,1.86.45,2.96,0,5.21-3.86,9.58-9.48,9.58-4.71,0-6.93-3.02-6.93-6.23,0-4.18,3.69-7.52,8.86-8.23ZM109.3,84.71c-3.24.64-4.88,2.96-4.88,5.21,0,1.67.91,2.96,2.27,2.96,1.76,0,3.18-1.99,3.18-4.82,0-1.09-.23-2.25-.57-3.34Z"/>
    <path class="cls-1" d="M123.6,85.29c-1.42,1.35-2.1,2.63-2.1,4.56s1.08,3.02,2.16,3.02c1.76,0,3.06-1.99,3.06-4.82,0-4.69-3.86-9.7-3.86-13.69,0-2.89,1.99-6.23,4.83-6.23,1.93,0,2.67,1.54,2.67,3.21s-.79,3.86-2.1,5.46c1.76,3.08,4.49,5.65,4.49,9.96,0,5.21-3.86,9.58-9.48,9.58-4.71,0-6.93-3.15-6.93-6.36,0-4.18,3.35-7.2,6.42-7.2,1.14,0,2.1.58,2.1,1.41,0,.39-.62.51-1.25,1.09Z"/>
  </g>
  <g>
    <path class="cls-2" d="M3,85.67c-.53-5.28,3.16-9.06,7.45-11.74l3.26,1.45c2.47,1.1,3.41-2.48,9.97-2.36,4.56.09,9.56-.71,13.5-3.7,1.95-1.48,3.23-3.91,4.76-5.67,1.05-1.21,2.14-1.23,3.29-1.75.78-.35,1.05-1.79,2.38-1.51.93.19,1.82.58,2.12,1.81.82-.24,1.64-.45,2.11-.22.57.27,1.32,1.18,1.35,1.78.21,3.62-.5,7.22-1.81,10.73-.75,2.03-1.3,3.9-2.41,5.83-.6,1.04-.97,2.34-1.72,3.3-1.63,2.1-3.11,4.07-4.53,6.29-1.07,1.68-2.24,3.43-3.45,4.92-1.29,1.61-2.66,1.63-4.29,1.45-10.51-1.17-20.42-3.94-29.84-8.18-1.19-.54-2-.85-2.16-2.42ZM51.57,70.23c.88-2.25.71-4.17.8-6.23-.27-.69-.73-1.28-1.35-1.26-.58.02-1.57.84-1.31,1.16l1.34.67c.24.12.17.78.19,1.1l.33,4.56ZM45.96,64.28l2.5.57c.42-1.22.45-3.2-.64-3.51-.63-.18-1.48.23-1.57.86l-.29,2.08ZM47.91,66.16c-.43-.88-1.7-1.07-2.71-.82-1.25.31-2.38,1.1-3.41,1.99-5.37,4.61-11.91,6.94-18.56,6.57-5.35-.3-6.74,3.64-10.08,2.22l-2.62-1.11c-4.15,2.26-7.9,7.05-6.28,11.69,9.38,4.29,19.19,7.39,29.71,8.46.93.09,1.68.08,2.59.25,1.04.19,2.22-1.15,2.83-2.04l5.44-7.9c1.3-1.89,2.44-3.5,3.45-5.49,1.29-2.56,2.28-4.91,2.28-7.76,0-2.31.14-4.81-.35-7.04-.38-.2-1.19.12-1.38.5.96,2.56.22,5.42-1.76,7.67l1.59.68c.13.06.26.7.1.74-.95.26-1.71-.81-2.48-.44-1.13.54-1.89,1.62-2.19,2.58-.59,1.88,1.65,3.98.52,3.73-.16-.04-.44-.18-.56-.32l-1.02-1.23c-2.58,1.48-2.01,3.93-4.41,3.61-1.13-.15-2.97-.09-4.03.3-.19.07-.61.64-.77.75-.13.09-.34-.05-.64-.24.93-1.82,2.57-3.43,4.44-4.57l5.44-3.33c3.24-1.98,6.62-5.91,4.88-9.44ZM40,67.51c2.39-1.89,3.67-2.4,5.01-3.31.23-.16.15-.94-.08-1.07-.43-.25-1.55.18-1.91.62l-3.03,3.76ZM42.96,78.15l.18-1.55c-2.73,1.54-5.23,2.87-7.63,5.06l3.82.13c1.51-1.33,1.07-2.29,3.63-3.65Z"/>
    <path class="cls-2" d="M42.96,78.15c-2.55,1.36-2.11,2.31-3.63,3.65l-3.82-.13c2.4-2.2,4.9-3.52,7.63-5.06l-.18,1.55Z"/>
    <path class="cls-2" d="M51.57,70.23l-.33-4.56c-.02-.32.05-.98-.19-1.1l-1.34-.67c-.26-.33.73-1.15,1.31-1.16.62-.02,1.08.57,1.35,1.26-.09,2.06.08,3.98-.8,6.23Z"/>
    <path class="cls-2" d="M45.96,64.28l.29-2.08c.09-.63.94-1.03,1.57-.86,1.09.31,1.06,2.28.64,3.51l-2.5-.57Z"/>
    <path class="cls-2" d="M40,67.51l3.03-3.76c.36-.44,1.47-.87,1.91-.62.22.13.31.91.08,1.07-1.33.91-2.62,1.42-5.01,3.31Z"/>
    <path class="cls-2" d="M45.12,66.64l-1.9,1.78c.16.53.56,1.43.88,2.08,1.11-.15,2.3-.8,2.73-1.89.11-.28.16-1.02.05-1.27-.13-.29-.67-.49-1.08-.77.07-.21.28-.61.45-.61.21,0,.8.14.96.29,1.22,1.2.58,3.54-1.1,4.4-.83.43-1.58.72-2.5,1.07l-1.61-3.59,2.46-2.06c.09-.08.52-.14.64-.16.16-.03.16.59.03.72Z"/>
  </g>
</svg>